<?xml version="1.0" encoding="UTF-8" standalone="no"?>
<svg
   version="1.2"
   viewBox="0 0 1578.9807 411.75559"
   width="1578.9807"
   height="411.75558"
   id="svg113"
   sodipodi:docname="download-from-windows-store-icon-logo-allvectorlogo.com-ai.svg"
   inkscape:version="1.2.1 (9c6d41e410, 2022-07-14, custom)"
   xmlns:inkscape="http://www.inkscape.org/namespaces/inkscape"
   xmlns:sodipodi="http://sodipodi.sourceforge.net/DTD/sodipodi-0.dtd"
   xmlns="http://www.w3.org/2000/svg"
   xmlns:svg="http://www.w3.org/2000/svg"
   xmlns:rdf="http://www.w3.org/1999/02/22-rdf-syntax-ns#"
   xmlns:cc="http://creativecommons.org/ns#"
   xmlns:dc="http://purl.org/dc/elements/1.1/">
  <sodipodi:namedview
     id="namedview115"
     pagecolor="#505050"
     bordercolor="#eeeeee"
     borderopacity="1"
     inkscape:showpageshadow="0"
     inkscape:pageopacity="0"
     inkscape:pagecheckerboard="0"
     inkscape:deskcolor="#505050"
     showgrid="false"
     inkscape:zoom="0.70710678"
     inkscape:cx="831.55757"
     inkscape:cy="12.727922"
     inkscape:window-width="1920"
     inkscape:window-height="1051"
     inkscape:window-x="1920"
     inkscape:window-y="0"
     inkscape:window-maximized="1"
     inkscape:current-layer="&lt;Group&gt;" />
  <title
     id="title2">download-from-windows-store-icon-logo-allvectorlogo</title>
  <defs
     id="defs10">
    <clipPath
       clipPathUnits="userSpaceOnUse"
       id="cp1">
      <path
         d="M 225.06,640.56 V 230.95 h 1576.96 v 409.61"
         id="path4" />
    </clipPath>
    <clipPath
       clipPathUnits="userSpaceOnUse"
       id="cp2">
      <path
         d="M 225.06,640.56 V 230.95 h 1576.96 v 409.61"
         id="path7" />
    </clipPath>
    <clipPath
       clipPathUnits="userSpaceOnUse"
       id="cp1-5">
      <path
         d="M 225.06,640.56 V 230.95 h 1576.96 v 409.61"
         id="path4-6" />
    </clipPath>
    <clipPath
       clipPathUnits="userSpaceOnUse"
       id="cp2-2">
      <path
         d="M 225.06,640.56 V 230.95 h 1576.96 v 409.61"
         id="path7-9" />
    </clipPath>
  </defs>
  <style
     id="style12">
		tspan { white-space:pre } 
		.t0 { font-size: 7px;fill: #ffffff;font-family: &quot;Segoe Pro&quot; } 
		.s1 { fill: #288845 } 
		.s2 { fill: #fefefe } 
		.s3 { fill: #0a0b0b } 
	</style>
  <g
     id="图层 1"
     transform="translate(-220.00596,-223.58439)">
    <g
       id="&lt;Group&gt;">
      <path
         id="&lt;Path&gt;"
         class="s1"
         d="m 221.04637,634.26217 v -409.6 H 1797.9463 v 409.6"
         style="fill:#288845" />
      <g
         id="&lt;Clip Group&gt;"
         clip-path="url(#cp1-5)"
         transform="translate(-4.0536343,-6.3378309)">
        <path
           id="&lt;Compound Path&gt;"
           fill-rule="evenodd"
           class="s2"
           d="m 363.6,364.1 v -39.4 c 0,-33.6 20.1,-38.6 39.9,-43.1 36.8,-8.4 44.7,10.8 44.8,36.5 v 29.1 l -8,1.6 v -31.4 c 0,-13.6 -2.2,-34.9 -35.1,-27.1 -22,5.1 -33.8,12.2 -33.6,35.2 v 37 z m 121.1,-29.3 v 5.1 l -8,1.6 v -6.7 c 0,-18.1 0.4,-26.8 -20.7,-23.8 -0.2,-2.9 -0.7,-5.6 -1.2,-8.1 25.5,-3.8 29.9,3.7 29.9,31.9 z m -53.4,-26.4 q 0.8,3.4 0.9,8.4 c -11.8,5.1 -16.3,8.7 -16.1,26.2 v 10.7 l -8.1,1.6 v -12.4 c 0,-25.7 9.9,-29.8 23.3,-34.5 z m 138.2,49.4 v 218 L 525.1,591.9 303,547.5 V 386 L 525.1,341.6 Z M 468.4,466.3 h -62.1 v 48.3 l 62.1,9 z m -68.3,-50.8 -49.3,7 v 37.6 h 49.3 z m 0,50.8 h -49.3 v 40.9 l 49.3,7 z m 68.3,-60.3 -62.1,9.1 v 45 h 62.1 z"
           style="fill:#fefefe" />
      </g>
      <rect
         style="fill:#1a1a1a;stroke:#ffffff;stroke-width:5.105;stroke-dasharray:none;stroke-opacity:1"
         id="rect1744"
         width="1573.8757"
         height="406.65057"
         x="222.55846"
         y="226.13689" />
      <g
         id="g109"
         clip-path="url(#cp2-2)"
         transform="translate(-4.0536343,-6.3378309)">
        <path
           id="path101"
           fill-rule="evenodd"
           class="s2"
           d="m 363.6,364.1 v -39.4 c 0,-33.6 20.1,-38.6 39.9,-43.1 36.8,-8.4 44.7,10.8 44.8,36.5 v 29.1 l -8,1.6 v -31.4 c 0,-13.6 -2.2,-34.9 -35.1,-27.1 -22,5.1 -33.8,12.2 -33.6,35.2 v 37 z m 121.1,-29.3 v 5.1 l -8,1.6 v -6.7 c 0,-18.1 0.4,-26.8 -20.7,-23.8 -0.2,-2.9 -0.7,-5.6 -1.2,-8.1 25.5,-3.8 29.9,3.7 29.9,31.9 z m -53.4,-26.4 q 0.8,3.4 0.9,8.4 c -11.8,5.1 -16.3,8.7 -16.1,26.2 v 10.7 l -8.1,1.6 v -12.4 c 0,-25.7 9.9,-29.8 23.3,-34.5 z m 138.2,49.4 v 218 L 525.1,591.9 303,547.5 V 386 L 525.1,341.6 Z M 468.4,466.3 h -62.1 v 48.3 l 62.1,9 z m -68.3,-50.8 -49.3,7 v 37.6 h 49.3 z m 0,50.8 h -49.3 v 40.9 l 49.3,7 z m 68.3,-60.3 -62.1,9.1 v 45 h 62.1 z"
           style="fill:#fefefe" />
        <path
           id="path103"
           fill-rule="evenodd"
           class="s2"
           d="m 720.1,347.6 q 0,12.4 -5.4,21.9 -5.5,9.5 -15.5,14.6 -10,5.1 -22.9,5.1 H 654.9 V 308 h 22.4 c 28.5,0 42.8,13.2 42.8,39.6 z m -9.9,0.2 q 0,-31.2 -33.2,-31.2 h -12.6 v 64 h 12 q 16.1,0 24.9,-8.6 8.9,-8.5 8.9,-24.2 z m 77.3,12.2 c 0,9.2 -2.6,16.6 -7.8,22.2 -5.2,5.6 -12.2,8.4 -21,8.4 q -12.9,0 -20.6,-8.2 -7.6,-8.1 -7.6,-21.5 c 0,-9.6 2.6,-17.2 7.8,-22.7 q 7.9,-8.4 21.7,-8.4 12.9,0 20.2,8.1 7.3,8.1 7.3,22.1 z m -9.5,0.3 q 0,-10.9 -4.8,-16.7 -4.8,-5.9 -13.9,-5.8 -8.9,-0.1 -14.1,5.9 -5.2,6 -5.2,16.8 c 0,7 1.7,12.4 5.2,16.3 q 5.3,5.9 14.1,5.9 9.1,0 13.9,-5.8 4.8,-5.8 4.8,-16.6 z m 96.9,-29.1 -17.3,58 h -9.7 L 836,347.7 q -0.6,-2.1 -0.9,-5.3 h -0.2 q -0.2,2 -1.2,5.2 l -13,41.6 h -9.3 l -17.5,-58 h 9.8 l 11.9,43.6 q 0.6,2.3 0.8,5.2 h 0.5 c 0,-1.4 0.4,-3.2 1,-5.3 l 13.3,-43.5 h 8.5 l 12.1,43.7 q 0.6,2.3 0.8,5.3 h 0.4 c 0.1,-1.9 0.4,-3.6 0.9,-5.3 l 11.9,-43.7 z m 58.9,58 h -9.3 v -33.1 q 0,-18.4 -13.4,-18.3 -6.9,0 -11.5,5.1 -4.6,5.2 -4.6,13.2 v 33.1 h -9.3 v -58 h 9.3 v 9.7 h 0.2 q 6.5,-11.1 19,-11.1 9.6,0 14.6,6.3 5,6.2 5,17.6 z m 26.8,0 h -9.3 v -85.8 h 9.3 z M 1032,360 c 0,9.2 -2.6,16.6 -7.8,22.2 -5.2,5.6 -12.2,8.4 -21,8.4 q -12.9,0 -20.6,-8.2 -7.6,-8.2 -7.6,-21.5 c 0,-9.6 2.6,-17.2 7.8,-22.7 q 7.9,-8.4 21.7,-8.4 c 8.6,0 15.4,2.7 20.2,8.1 q 7.3,8.1 7.3,22.1 z m -9.5,0.3 q 0,-10.9 -4.8,-16.7 -4.9,-5.9 -13.9,-5.9 -8.9,0 -14.1,6 -5.2,6 -5.2,16.8 c 0,7 1.7,12.4 5.2,16.3 q 5.3,5.9 14.1,5.9 9.1,0 13.9,-5.8 4.8,-5.8 4.8,-16.6 z m 65,28.9 h -9.3 v -9.1 h -0.2 c -4.1,7 -10,10.5 -17.9,10.5 q -8.4,0 -13.4,-4.5 -5,-4.6 -5,-12.3 0,-16.2 19.1,-18.9 l 17.4,-2.4 q 0,-14.7 -12,-14.8 -10.4,0 -18.9,7.1 v -9.5 q 2.6,-1.9 8.7,-3.7 6.2,-1.8 11,-1.8 20.4,0 20.5,21.7 z m -9.3,-29.3 -14.1,2 q -7.2,1 -10,3.4 -2.9,2.4 -2.9,7.8 0,4.3 3.1,7 3.1,2.6 8,2.6 6.9,0 11.4,-4.9 4.5,-4.8 4.5,-12.1 z m 75.8,29.3 h -9.3 v -9.9 h -0.2 c -4.3,7.5 -11,11.3 -20,11.3 q -10.9,0 -17.5,-7.9 -6.5,-7.9 -6.5,-21.1 0,-14.4 7.2,-23.1 7.3,-8.7 19.4,-8.7 11.9,0 17.4,9.4 h 0.2 v -35.8 h 9.3 z m -9.3,-26.2 v -8.6 q 0,-7.2 -4.8,-11.9 -4.8,-4.8 -11.6,-4.8 -8.4,0 -13.3,6.2 -4.9,6.2 -4.9,17.2 -0.1,9.9 4.6,15.8 4.6,5.8 12.5,5.8 7.6,0 12.6,-5.6 4.9,-5.5 4.9,-14.1 z m 83.7,-51.5 q -2.7,-1.5 -6.2,-1.5 -9.7,0 -9.7,12.3 v 8.9 h 13.6 v 7.9 h -13.6 v 50.1 h -9.3 v -50.1 h -9.8 v -7.9 h 9.8 v -9.4 c 0,-5.9 1.8,-10.7 5.2,-14.3 q 5.2,-5.4 13.3,-5.4 4.2,0 6.7,1 z m 37.9,29.1 q -2.5,-1.9 -7.1,-1.9 -6.2,0 -10,5.8 -3.9,5.8 -3.9,15.1 v 29.6 h -9.2 v -58 h 9.2 v 12 h 0.3 q 1.9,-6 5.9,-9.5 4,-3.5 9.2,-3.5 3.7,0 5.6,0.8 z m 61.3,19.3 c 0,9.2 -2.7,16.7 -7.9,22.2 -5.2,5.6 -12.2,8.5 -21,8.5 -8.6,0 -15.4,-2.8 -20.5,-8.2 q -7.7,-8.2 -7.7,-21.6 c 0,-9.5 2.6,-17.1 7.9,-22.7 q 7.8,-8.3 21.7,-8.3 12.9,-0.1 20.2,8 7.3,8.1 7.3,22.1 z m -9.5,0.4 q 0,-11 -4.9,-16.8 -4.8,-5.8 -13.8,-5.8 -9,0 -14.2,5.9 -5.2,6 -5.2,16.9 c 0,6.9 1.8,12.3 5.2,16.3 q 5.3,5.8 14.2,5.8 9,0 13.8,-5.7 4.9,-5.8 4.9,-16.6 z m 106.2,28.8 h -9.3 v -33.3 q 0,-9.7 -3,-13.9 -3,-4.2 -10,-4.2 -5.9,0 -10.1,5.4 -4.1,5.4 -4.2,13 v 33 h -9.2 v -34.4 q 0,-17 -13.2,-17 -6.2,0 -10.1,5.1 -4,5.1 -4,13.3 v 33 h -9.3 v -57.9 h 9.3 v 9.1 h 0.3 q 6.1,-10.5 17.9,-10.5 5.7,0 10.2,3.1 4.5,3.2 6.3,8.9 6.4,-12 19.2,-12 19.2,-0.1 19.2,23.6 z"
           style="fill:#fefefe" />
        <path
           id="path105"
           fill-rule="evenodd"
           class="s2"
           d="m 803.4,441.3 -34.2,120.9 h -16.6 l -24.9,-88.4 q -1.4,-5 -1.8,-12.2 h -0.3 q -0.7,6.2 -2.3,12 l -25.1,88.6 H 681.8 L 646.5,441.3 H 662 l 25.7,92.8 q 1.6,6.1 2.1,12.1 h 0.4 c 0.2,-3.4 1.1,-7.4 2.5,-12.1 l 26.8,-92.8 h 13.6 l 25.6,93.5 q 1.4,5.2 2,11.2 h 0.4 q 0.4,-4.4 2.2,-11.6 L 788,441.3 Z m 27.5,6.2 q 0,3.9 -2.7,6.5 c -1.8,1.7 -3.9,2.5 -6.4,2.5 q -3.8,0 -6.4,-2.5 -2.7,-2.5 -2.7,-6.5 0.1,-3.6 2.6,-6.3 c 1.7,-1.7 3.9,-2.7 6.5,-2.7 2.6,0 4.7,0.9 6.5,2.7 q 2.6,2.6 2.6,6.3 z m -2.4,114.7 h -13.8 v -86.3 h 13.8 z m 92.6,0 H 907.3 V 513 q 0,-27.5 -20.1,-27.5 -10.2,0 -17,7.8 -6.9,7.7 -6.9,19.7 v 49.2 h -13.8 v -86.4 h 13.8 v 14.4 h 0.3 c 6.5,-11 15.9,-16.4 28.3,-16.4 q 14.3,0 21.8,9.2 7.4,9.3 7.4,26.3 z m 96,0 h -13.9 v -14.6 h -0.3 q -9.6,16.8 -29.7,16.7 -16.3,0 -26,-11.7 -9.7,-11.8 -9.7,-31.4 0,-21.4 10.7,-34.4 10.8,-13 28.8,-13 17.7,0 25.9,14 h 0.3 v -53.4 h 13.9 z m -13.9,-39 v -12.8 q 0,-10.6 -7.1,-17.8 -7.1,-7 -17.3,-7.1 -12.5,0.1 -19.8,9.3 -7.4,9.2 -7.4,25.6 0.1,14.8 7,23.5 6.9,8.6 18.6,8.6 c 7.6,0 13.8,-2.7 18.7,-8.3 4.9,-5.4 7.3,-12.5 7.3,-21 z m 116,-4.5 q 0,20.6 -11.7,33.1 c -7.8,8.4 -18.2,12.5 -31.3,12.5 q -19.2,0 -30.6,-12.2 -11.4,-12.1 -11.4,-32 0,-21.5 11.7,-33.9 11.7,-12.4 32.3,-12.4 19.2,0 30.1,12 10.9,12 10.9,32.9 z m -14.2,0.5 q 0,-16.2 -7.2,-25 -7.2,-8.6 -20.6,-8.7 -13.3,0.1 -21.1,9 -7.8,8.9 -7.8,25 0.1,15.6 7.9,24.3 7.7,8.7 21,8.7 c 9,0 15.9,-2.9 20.6,-8.6 q 7.2,-8.6 7.2,-24.7 z m 140,-43.3 -25.9,86.3 h -14.3 L 1187,500.4 q -0.9,-3.2 -1.3,-7.9 h -0.4 q -0.2,2.9 -1.7,7.7 l -19.3,62 h -13.9 l -26,-86.3 h 14.5 l 17.8,64.9 c 0.5,2.2 0.9,4.8 1.1,7.8 h 0.7 q 0.2,-3.3 1.6,-8 l 19.8,-64.7 h 12.7 l 17.9,65.1 c 0.6,2.1 1,4.7 1.2,7.7 h 0.7 q 0.2,-4 1.4,-7.7 l 17.6,-65.1 z m 58.9,63.2 q 0,11.2 -8.7,18.2 -8.6,7 -22.9,7 -12.3,0 -21.4,-5.2 v -14.9 q 10.1,8.3 22.4,8.3 c 10.9,0 16.4,-4 16.4,-12 q 0,-4.9 -3.2,-8 -3.2,-3.1 -14.6,-8.3 -11.4,-4.9 -16.2,-10.5 -4.7,-5.6 -4.7,-14.9 0,-10.7 8.6,-17.9 8.6,-7.1 21.9,-7.1 10.2,0 18.4,4 v 13.9 c -5.6,-4.1 -12.1,-6.2 -19.5,-6.2 -4.6,0 -8.3,1.2 -11,3.4 -2.8,2.3 -4.2,5.2 -4.2,8.7 0,3.9 1.1,6.8 3.2,8.8 2.1,2.1 6.5,4.5 13.2,7.3 q 12.3,5.2 17.3,11 c 3.3,3.8 5,8.6 5,14.4 z"
           style="fill:#fefefe" />
        <path
           id="path107"
           fill-rule="evenodd"
           class="s2"
           d="m 1426.9,531.7 q 0,15.3 -10.8,24 -10.7,8.7 -29.3,8.7 -6.7,0 -15.2,-2.3 c -5.7,-1.5 -9.7,-3 -12,-4.6 v -16.8 q 5.1,4.6 13.5,7.7 8.4,3.1 15.7,3.1 23.2,0 23.2,-18.1 c 0,-5.1 -1.6,-9.4 -5,-13 q -4.9,-5.4 -20.4,-14.3 -14.9,-8.4 -20.9,-16 -6,-7.6 -6,-18.5 0,-14.3 10.7,-23.3 10.8,-9 27.7,-9 16.3,0 23.8,4.3 v 15.9 q -9.5,-7.5 -24.6,-7.5 -10,0 -16.3,5.1 -6.4,5 -6.4,13.2 0,6 1.9,9.7 1.9,3.6 6.4,7.1 4.5,3.6 15.2,9.6 16,8.9 22.4,16.8 6.4,7.9 6.4,18.2 z m 57.2,29.7 q -5,2.8 -13,2.8 -22.6,0 -22.6,-25.5 v -51.1 h -14.8 v -11.7 h 14.8 v -21.1 l 13.8,-4.4 v 25.5 h 21.8 v 11.7 h -21.8 v 48.8 q 0,8.6 3,12.3 2.9,3.7 9.8,3.7 c 3.5,0 6.4,-0.9 9,-2.8 z m 95.3,-42.7 q 0,20.6 -11.7,33.1 -11.6,12.5 -31.3,12.5 -19.1,0 -30.6,-12.1 -11.4,-12.2 -11.4,-32.1 0,-21.5 11.7,-33.9 11.8,-12.4 32.3,-12.4 19.2,0 30.1,12 10.9,12 10.9,32.9 z m -14.2,0.5 q 0,-16.2 -7.2,-24.9 -7.2,-8.7 -20.6,-8.7 -13.3,0 -21.1,8.9 -7.7,8.9 -7.7,25.1 0,15.5 7.8,24.2 7.8,8.7 21,8.7 13.5,0 20.7,-8.6 7.1,-8.6 7.1,-24.7 z m 73.7,-29.3 q -3.7,-2.8 -10.5,-2.8 -9.2,0 -14.9,8.6 -5.8,8.7 -5.8,22.5 v 44 h -13.8 v -86.3 h 13.8 v 17.8 h 0.4 q 2.8,-9 8.8,-14.1 6,-5.2 13.8,-5.2 5.4,0 8.2,1.2 z m 83.3,32.6 h -60.9 q 0.3,14.6 7.7,22.3 7.4,7.7 20.4,7.7 14.7,0 26.8,-9.4 V 556 q -11.3,8.3 -30,8.3 -18.5,0 -28.9,-11.9 -10.4,-11.9 -10.4,-33 0,-12.8 5.2,-23.4 5.2,-10.6 14.3,-16.4 9.1,-5.8 20.2,-5.8 16.8,0 26.2,10.9 9.4,10.9 9.4,30.6 z m -14.1,-11.7 q -0.2,-12 -5.8,-18.6 -5.6,-6.7 -15.8,-6.7 -9.6,0 -16.5,7 -6.8,6.9 -8.6,18.3 z"
           style="fill:#fefefe" />
      </g>
    </g>
  </g>
  <metadata
     id="metadata578">
    <rdf:RDF>
      <cc:Work
         rdf:about="">
        <dc:title>download-from-windows-store-icon-logo-allvectorlogo</dc:title>
      </cc:Work>
    </rdf:RDF>
  </metadata>
</svg>
